%FSLAX45Y45*%
G04 Gerber Fmt 4.5, Leading zero omitted, Abs format (unit mm)*
G04 Created by KiCad (PCBNEW (5.1.7)-1) date 2021-07-07 16:53:05*
%MOMM*%
%LPD*%
G01*
G04 APERTURE LIST*
%TA.AperFunction,Profile*%
%ADD10C,0.050000*%
%TD*%
%TA.AperFunction,Profile*%
%ADD11C,0.100000*%
%TD*%
%ADD12C,0.200000*%
%ADD13C,0.300000*%
G04 APERTURE END LIST*
D10*
X8700000Y-11630010D02*
X8700000Y-11490000D01*
X8700000Y-10980010D02*
X8700000Y-11060000D01*
D11*
X11500000Y-11240000D02*
X11500000Y-11750000D01*
X11499880Y-10439085D02*
X11500000Y-10780000D01*
X11272500Y-10012500D02*
X11273000Y-10242000D01*
X11499880Y-10439085D02*
G75*
G02*
X11273000Y-10242000I120J229270D01*
G01*
D10*
X11500000Y-9800000D02*
X11480000Y-9800000D01*
X11500000Y-9800000D02*
X11500000Y-9667500D01*
X11272500Y-10012500D02*
G75*
G02*
X11480000Y-9800000I210000J2500D01*
G01*
X8700000Y-11750000D02*
X8700000Y-11630010D01*
X8700000Y-11490000D02*
G75*
G03*
X8700000Y-11060000I0J215000D01*
G01*
X11500000Y-9667500D02*
X11500000Y-8750000D01*
D11*
X11500000Y-11240000D02*
G75*
G02*
X11500000Y-10780000I0J230000D01*
G01*
X11500000Y-11750000D02*
G75*
G02*
X11350000Y-11900000I-150000J0D01*
G01*
X8850000Y-11900000D02*
G75*
G02*
X8700000Y-11750000I0J150000D01*
G01*
X8700000Y-8750000D02*
G75*
G02*
X8850000Y-8600000I150000J0D01*
G01*
X11350000Y-8600000D02*
G75*
G02*
X11500000Y-8750000I0J-150000D01*
G01*
X8850000Y-8600000D02*
X11350000Y-8600000D01*
X8700000Y-10980010D02*
X8700000Y-8750000D01*
X11350000Y-11900000D02*
X8850000Y-11900000D01*
D12*
D13*
X8981428Y-12370714D02*
X8981428Y-12070714D01*
X9052857Y-12070714D01*
X9095714Y-12085000D01*
X9124286Y-12113571D01*
X9138571Y-12142143D01*
X9152857Y-12199286D01*
X9152857Y-12242143D01*
X9138571Y-12299286D01*
X9124286Y-12327857D01*
X9095714Y-12356429D01*
X9052857Y-12370714D01*
X8981428Y-12370714D01*
X9281428Y-12370714D02*
X9281428Y-12170714D01*
X9281428Y-12227857D02*
X9295714Y-12199286D01*
X9310000Y-12185000D01*
X9338571Y-12170714D01*
X9367143Y-12170714D01*
X9467143Y-12370714D02*
X9467143Y-12170714D01*
X9467143Y-12070714D02*
X9452857Y-12085000D01*
X9467143Y-12099286D01*
X9481428Y-12085000D01*
X9467143Y-12070714D01*
X9467143Y-12099286D01*
X9652857Y-12370714D02*
X9624286Y-12356429D01*
X9610000Y-12327857D01*
X9610000Y-12070714D01*
X9810000Y-12370714D02*
X9781428Y-12356429D01*
X9767143Y-12327857D01*
X9767143Y-12070714D01*
X10152857Y-12370714D02*
X10152857Y-12070714D01*
X10252857Y-12285000D01*
X10352857Y-12070714D01*
X10352857Y-12370714D01*
X10624286Y-12370714D02*
X10624286Y-12213571D01*
X10610000Y-12185000D01*
X10581428Y-12170714D01*
X10524286Y-12170714D01*
X10495714Y-12185000D01*
X10624286Y-12356429D02*
X10595714Y-12370714D01*
X10524286Y-12370714D01*
X10495714Y-12356429D01*
X10481428Y-12327857D01*
X10481428Y-12299286D01*
X10495714Y-12270714D01*
X10524286Y-12256429D01*
X10595714Y-12256429D01*
X10624286Y-12242143D01*
X10767143Y-12170714D02*
X10767143Y-12470714D01*
X10767143Y-12185000D02*
X10795714Y-12170714D01*
X10852857Y-12170714D01*
X10881428Y-12185000D01*
X10895714Y-12199286D01*
X10910000Y-12227857D01*
X10910000Y-12313571D01*
X10895714Y-12342143D01*
X10881428Y-12356429D01*
X10852857Y-12370714D01*
X10795714Y-12370714D01*
X10767143Y-12356429D01*
X11038571Y-12342143D02*
X11052857Y-12356429D01*
X11038571Y-12370714D01*
X11024286Y-12356429D01*
X11038571Y-12342143D01*
X11038571Y-12370714D01*
X11038571Y-12185000D02*
X11052857Y-12199286D01*
X11038571Y-12213571D01*
X11024286Y-12199286D01*
X11038571Y-12185000D01*
X11038571Y-12213571D01*
M02*
