M48
; DRILL file {KiCad (5.1.7)-1} date 11/12/21 18:57:50
; FORMAT={-:-/ absolute / metric / decimal}
; #@! TF.CreationDate,2021-11-12T18:57:50+01:00
; #@! TF.GenerationSoftware,Kicad,Pcbnew,(5.1.7)-1
; #@! TF.FileFunction,Plated,1,2,PTH
FMAT,2
METRIC
T1C0.400
T2C1.000
%
G90
G05
T1
X91.6Y-110.6
X92.345Y-112.655
X93.0Y-89.0
X94.8Y-114.0
X95.5Y-110.5
X96.0Y-97.0
X98.0Y-89.0
X100.5Y-94.0
X101.5Y-111.0
X102.0Y-113.8
X105.5Y-94.0
X108.0Y-109.0
X108.2Y-99.4
X109.4Y-113.4
X110.295Y-99.955
X110.3Y-101.1
X112.0Y-92.075
T2
X89.495Y-94.875
X89.495Y-97.415
X89.495Y-99.955
X89.495Y-102.495
X89.495Y-105.035
X89.495Y-107.575
X89.495Y-110.115
X89.495Y-112.655
X112.355Y-94.875
X112.355Y-97.415
X112.355Y-99.955
X112.355Y-102.495
X112.355Y-105.035
X112.355Y-107.575
X112.355Y-110.115
X112.355Y-112.655
T0
M30
