%FSLAX45Y45*%
G04 Gerber Fmt 4.5, Leading zero omitted, Abs format (unit mm)*
G04 Created by KiCad (PCBNEW (5.1.7)-1) date 2021-07-07 16:53:05*
%MOMM*%
%LPD*%
G01*
G04 APERTURE LIST*
%TA.AperFunction,Profile*%
%ADD10C,0.050000*%
%TD*%
%TA.AperFunction,Profile*%
%ADD11C,0.100000*%
%TD*%
%ADD12C,0.200000*%
%ADD13C,0.300000*%
G04 APERTURE END LIST*
D10*
X8700000Y-11630010D02*
X8700000Y-11490000D01*
X8700000Y-10980010D02*
X8700000Y-11060000D01*
D11*
X11500000Y-11240000D02*
X11500000Y-11750000D01*
X11499880Y-10439085D02*
X11500000Y-10780000D01*
X11272500Y-10012500D02*
X11273000Y-10242000D01*
X11499880Y-10439085D02*
G75*
G02*
X11273000Y-10242000I120J229270D01*
G01*
D10*
X11500000Y-9800000D02*
X11480000Y-9800000D01*
X11500000Y-9800000D02*
X11500000Y-9667500D01*
X11272500Y-10012500D02*
G75*
G02*
X11480000Y-9800000I210000J2500D01*
G01*
X8700000Y-11750000D02*
X8700000Y-11630010D01*
X8700000Y-11490000D02*
G75*
G03*
X8700000Y-11060000I0J215000D01*
G01*
X11500000Y-9667500D02*
X11500000Y-8750000D01*
D11*
X11500000Y-11240000D02*
G75*
G02*
X11500000Y-10780000I0J230000D01*
G01*
X11500000Y-11750000D02*
G75*
G02*
X11350000Y-11900000I-150000J0D01*
G01*
X8850000Y-11900000D02*
G75*
G02*
X8700000Y-11750000I0J150000D01*
G01*
X8700000Y-8750000D02*
G75*
G02*
X8850000Y-8600000I150000J0D01*
G01*
X11350000Y-8600000D02*
G75*
G02*
X11500000Y-8750000I0J-150000D01*
G01*
X8850000Y-8600000D02*
X11350000Y-8600000D01*
X8700000Y-10980010D02*
X8700000Y-8750000D01*
X11350000Y-11900000D02*
X8850000Y-11900000D01*
D12*
X9280000Y-8880000D02*
X9320000Y-8920000D01*
X9320000Y-8880000D02*
X9280000Y-8920000D01*
X9460000Y-11380000D02*
X9500000Y-11420000D01*
X9500000Y-11380000D02*
X9460000Y-11420000D01*
X9530000Y-11030000D02*
X9570000Y-11070000D01*
X9570000Y-11030000D02*
X9530000Y-11070000D01*
X9580000Y-9680000D02*
X9620000Y-9720000D01*
X9620000Y-9680000D02*
X9580000Y-9720000D01*
X9780000Y-8880000D02*
X9820000Y-8920000D01*
X9820000Y-8880000D02*
X9780000Y-8920000D01*
X10030000Y-9380000D02*
X10070000Y-9420000D01*
X10070000Y-9380000D02*
X10030000Y-9420000D01*
X10130000Y-11080000D02*
X10170000Y-11120000D01*
X10170000Y-11080000D02*
X10130000Y-11120000D01*
X10180000Y-11360000D02*
X10220000Y-11400000D01*
X10220000Y-11360000D02*
X10180000Y-11400000D01*
X10530000Y-9380000D02*
X10570000Y-9420000D01*
X10570000Y-9380000D02*
X10530000Y-9420000D01*
X10780000Y-10880000D02*
X10820000Y-10920000D01*
X10820000Y-10880000D02*
X10780000Y-10920000D01*
X10800000Y-9920000D02*
X10840000Y-9960000D01*
X10840000Y-9920000D02*
X10800000Y-9960000D01*
X10920000Y-11320000D02*
X10960000Y-11360000D01*
X10960000Y-11320000D02*
X10920000Y-11360000D01*
X11010000Y-10090000D02*
X11050000Y-10130000D01*
X11050000Y-10090000D02*
X11010000Y-10130000D01*
X11180000Y-9187500D02*
X11220000Y-9227500D01*
X11220000Y-9187500D02*
X11180000Y-9227500D01*
X8999500Y-9487500D02*
G75*
G03*
X8999500Y-9487500I-50000J0D01*
G01*
X8999500Y-9741500D02*
G75*
G03*
X8999500Y-9741500I-50000J0D01*
G01*
X8999500Y-9995500D02*
G75*
G03*
X8999500Y-9995500I-50000J0D01*
G01*
X8999500Y-10249500D02*
G75*
G03*
X8999500Y-10249500I-50000J0D01*
G01*
X8999500Y-10503500D02*
G75*
G03*
X8999500Y-10503500I-50000J0D01*
G01*
X8999500Y-10757500D02*
G75*
G03*
X8999500Y-10757500I-50000J0D01*
G01*
X8999500Y-11011500D02*
G75*
G03*
X8999500Y-11011500I-50000J0D01*
G01*
X8999500Y-11265500D02*
G75*
G03*
X8999500Y-11265500I-50000J0D01*
G01*
X11285500Y-9487500D02*
G75*
G03*
X11285500Y-9487500I-50000J0D01*
G01*
X11285500Y-9741500D02*
G75*
G03*
X11285500Y-9741500I-50000J0D01*
G01*
X11285500Y-9995500D02*
G75*
G03*
X11285500Y-9995500I-50000J0D01*
G01*
X11285500Y-10249500D02*
G75*
G03*
X11285500Y-10249500I-50000J0D01*
G01*
X11285500Y-10503500D02*
G75*
G03*
X11285500Y-10503500I-50000J0D01*
G01*
X11285500Y-10757500D02*
G75*
G03*
X11285500Y-10757500I-50000J0D01*
G01*
X11285500Y-11011500D02*
G75*
G03*
X11285500Y-11011500I-50000J0D01*
G01*
X11285500Y-11265500D02*
G75*
G03*
X11285500Y-11265500I-50000J0D01*
G01*
D13*
X8981428Y-12370714D02*
X8981428Y-12070714D01*
X9052857Y-12070714D01*
X9095714Y-12085000D01*
X9124286Y-12113571D01*
X9138571Y-12142143D01*
X9152857Y-12199286D01*
X9152857Y-12242143D01*
X9138571Y-12299286D01*
X9124286Y-12327857D01*
X9095714Y-12356429D01*
X9052857Y-12370714D01*
X8981428Y-12370714D01*
X9281428Y-12370714D02*
X9281428Y-12170714D01*
X9281428Y-12227857D02*
X9295714Y-12199286D01*
X9310000Y-12185000D01*
X9338571Y-12170714D01*
X9367143Y-12170714D01*
X9467143Y-12370714D02*
X9467143Y-12170714D01*
X9467143Y-12070714D02*
X9452857Y-12085000D01*
X9467143Y-12099286D01*
X9481428Y-12085000D01*
X9467143Y-12070714D01*
X9467143Y-12099286D01*
X9652857Y-12370714D02*
X9624286Y-12356429D01*
X9610000Y-12327857D01*
X9610000Y-12070714D01*
X9810000Y-12370714D02*
X9781428Y-12356429D01*
X9767143Y-12327857D01*
X9767143Y-12070714D01*
X10152857Y-12370714D02*
X10152857Y-12070714D01*
X10252857Y-12285000D01*
X10352857Y-12070714D01*
X10352857Y-12370714D01*
X10624286Y-12370714D02*
X10624286Y-12213571D01*
X10610000Y-12185000D01*
X10581428Y-12170714D01*
X10524286Y-12170714D01*
X10495714Y-12185000D01*
X10624286Y-12356429D02*
X10595714Y-12370714D01*
X10524286Y-12370714D01*
X10495714Y-12356429D01*
X10481428Y-12327857D01*
X10481428Y-12299286D01*
X10495714Y-12270714D01*
X10524286Y-12256429D01*
X10595714Y-12256429D01*
X10624286Y-12242143D01*
X10767143Y-12170714D02*
X10767143Y-12470714D01*
X10767143Y-12185000D02*
X10795714Y-12170714D01*
X10852857Y-12170714D01*
X10881428Y-12185000D01*
X10895714Y-12199286D01*
X10910000Y-12227857D01*
X10910000Y-12313571D01*
X10895714Y-12342143D01*
X10881428Y-12356429D01*
X10852857Y-12370714D01*
X10795714Y-12370714D01*
X10767143Y-12356429D01*
X11038571Y-12342143D02*
X11052857Y-12356429D01*
X11038571Y-12370714D01*
X11024286Y-12356429D01*
X11038571Y-12342143D01*
X11038571Y-12370714D01*
X11038571Y-12185000D02*
X11052857Y-12199286D01*
X11038571Y-12213571D01*
X11024286Y-12199286D01*
X11038571Y-12185000D01*
X11038571Y-12213571D01*
X8655000Y-12845000D02*
X8695000Y-12885000D01*
X8695000Y-12845000D02*
X8655000Y-12885000D01*
X9038571Y-12700714D02*
X9067143Y-12700714D01*
X9095714Y-12715000D01*
X9110000Y-12729286D01*
X9124286Y-12757857D01*
X9138571Y-12815000D01*
X9138571Y-12886429D01*
X9124286Y-12943571D01*
X9110000Y-12972143D01*
X9095714Y-12986429D01*
X9067143Y-13000714D01*
X9038571Y-13000714D01*
X9010000Y-12986429D01*
X8995714Y-12972143D01*
X8981428Y-12943571D01*
X8967143Y-12886429D01*
X8967143Y-12815000D01*
X8981428Y-12757857D01*
X8995714Y-12729286D01*
X9010000Y-12715000D01*
X9038571Y-12700714D01*
X9267143Y-12972143D02*
X9281428Y-12986429D01*
X9267143Y-13000714D01*
X9252857Y-12986429D01*
X9267143Y-12972143D01*
X9267143Y-13000714D01*
X9538571Y-12800714D02*
X9538571Y-13000714D01*
X9467143Y-12686429D02*
X9395714Y-12900714D01*
X9581428Y-12900714D01*
X9752857Y-12700714D02*
X9781428Y-12700714D01*
X9810000Y-12715000D01*
X9824286Y-12729286D01*
X9838571Y-12757857D01*
X9852857Y-12815000D01*
X9852857Y-12886429D01*
X9838571Y-12943571D01*
X9824286Y-12972143D01*
X9810000Y-12986429D01*
X9781428Y-13000714D01*
X9752857Y-13000714D01*
X9724286Y-12986429D01*
X9710000Y-12972143D01*
X9695714Y-12943571D01*
X9681428Y-12886429D01*
X9681428Y-12815000D01*
X9695714Y-12757857D01*
X9710000Y-12729286D01*
X9724286Y-12715000D01*
X9752857Y-12700714D01*
X9981428Y-13000714D02*
X9981428Y-12800714D01*
X9981428Y-12829286D02*
X9995714Y-12815000D01*
X10024286Y-12800714D01*
X10067143Y-12800714D01*
X10095714Y-12815000D01*
X10110000Y-12843571D01*
X10110000Y-13000714D01*
X10110000Y-12843571D02*
X10124286Y-12815000D01*
X10152857Y-12800714D01*
X10195714Y-12800714D01*
X10224286Y-12815000D01*
X10238571Y-12843571D01*
X10238571Y-13000714D01*
X10381428Y-13000714D02*
X10381428Y-12800714D01*
X10381428Y-12829286D02*
X10395714Y-12815000D01*
X10424286Y-12800714D01*
X10467143Y-12800714D01*
X10495714Y-12815000D01*
X10510000Y-12843571D01*
X10510000Y-13000714D01*
X10510000Y-12843571D02*
X10524286Y-12815000D01*
X10552857Y-12800714D01*
X10595714Y-12800714D01*
X10624286Y-12815000D01*
X10638571Y-12843571D01*
X10638571Y-13000714D01*
X11224286Y-12686429D02*
X10967143Y-13072143D01*
X11610000Y-12700714D02*
X11638571Y-12700714D01*
X11667143Y-12715000D01*
X11681428Y-12729286D01*
X11695714Y-12757857D01*
X11710000Y-12815000D01*
X11710000Y-12886429D01*
X11695714Y-12943571D01*
X11681428Y-12972143D01*
X11667143Y-12986429D01*
X11638571Y-13000714D01*
X11610000Y-13000714D01*
X11581428Y-12986429D01*
X11567143Y-12972143D01*
X11552857Y-12943571D01*
X11538571Y-12886429D01*
X11538571Y-12815000D01*
X11552857Y-12757857D01*
X11567143Y-12729286D01*
X11581428Y-12715000D01*
X11610000Y-12700714D01*
X11838571Y-12972143D02*
X11852857Y-12986429D01*
X11838571Y-13000714D01*
X11824286Y-12986429D01*
X11838571Y-12972143D01*
X11838571Y-13000714D01*
X12038571Y-12700714D02*
X12067143Y-12700714D01*
X12095714Y-12715000D01*
X12110000Y-12729286D01*
X12124286Y-12757857D01*
X12138571Y-12815000D01*
X12138571Y-12886429D01*
X12124286Y-12943571D01*
X12110000Y-12972143D01*
X12095714Y-12986429D01*
X12067143Y-13000714D01*
X12038571Y-13000714D01*
X12010000Y-12986429D01*
X11995714Y-12972143D01*
X11981428Y-12943571D01*
X11967143Y-12886429D01*
X11967143Y-12815000D01*
X11981428Y-12757857D01*
X11995714Y-12729286D01*
X12010000Y-12715000D01*
X12038571Y-12700714D01*
X12424286Y-13000714D02*
X12252857Y-13000714D01*
X12338571Y-13000714D02*
X12338571Y-12700714D01*
X12310000Y-12743571D01*
X12281428Y-12772143D01*
X12252857Y-12786429D01*
X12681428Y-12700714D02*
X12624286Y-12700714D01*
X12595714Y-12715000D01*
X12581428Y-12729286D01*
X12552857Y-12772143D01*
X12538571Y-12829286D01*
X12538571Y-12943571D01*
X12552857Y-12972143D01*
X12567143Y-12986429D01*
X12595714Y-13000714D01*
X12652857Y-13000714D01*
X12681428Y-12986429D01*
X12695714Y-12972143D01*
X12710000Y-12943571D01*
X12710000Y-12872143D01*
X12695714Y-12843571D01*
X12681428Y-12829286D01*
X12652857Y-12815000D01*
X12595714Y-12815000D01*
X12567143Y-12829286D01*
X12552857Y-12843571D01*
X12538571Y-12872143D01*
X12824286Y-12700714D02*
X12824286Y-12757857D01*
X12938571Y-12700714D02*
X12938571Y-12757857D01*
X13381428Y-13115000D02*
X13367143Y-13100714D01*
X13338571Y-13057857D01*
X13324286Y-13029286D01*
X13310000Y-12986429D01*
X13295714Y-12915000D01*
X13295714Y-12857857D01*
X13310000Y-12786429D01*
X13324286Y-12743571D01*
X13338571Y-12715000D01*
X13367143Y-12672143D01*
X13381428Y-12657857D01*
X13652857Y-13000714D02*
X13481428Y-13000714D01*
X13567143Y-13000714D02*
X13567143Y-12700714D01*
X13538571Y-12743571D01*
X13510000Y-12772143D01*
X13481428Y-12786429D01*
X13910000Y-12800714D02*
X13910000Y-13000714D01*
X13838571Y-12686429D02*
X13767143Y-12900714D01*
X13952857Y-12900714D01*
X14295714Y-13000714D02*
X14295714Y-12700714D01*
X14424286Y-13000714D02*
X14424286Y-12843571D01*
X14410000Y-12815000D01*
X14381428Y-12800714D01*
X14338571Y-12800714D01*
X14310000Y-12815000D01*
X14295714Y-12829286D01*
X14610000Y-13000714D02*
X14581428Y-12986429D01*
X14567143Y-12972143D01*
X14552857Y-12943571D01*
X14552857Y-12857857D01*
X14567143Y-12829286D01*
X14581428Y-12815000D01*
X14610000Y-12800714D01*
X14652857Y-12800714D01*
X14681428Y-12815000D01*
X14695714Y-12829286D01*
X14710000Y-12857857D01*
X14710000Y-12943571D01*
X14695714Y-12972143D01*
X14681428Y-12986429D01*
X14652857Y-13000714D01*
X14610000Y-13000714D01*
X14881428Y-13000714D02*
X14852857Y-12986429D01*
X14838571Y-12957857D01*
X14838571Y-12700714D01*
X15110000Y-12986429D02*
X15081428Y-13000714D01*
X15024286Y-13000714D01*
X14995714Y-12986429D01*
X14981428Y-12957857D01*
X14981428Y-12843571D01*
X14995714Y-12815000D01*
X15024286Y-12800714D01*
X15081428Y-12800714D01*
X15110000Y-12815000D01*
X15124286Y-12843571D01*
X15124286Y-12872143D01*
X14981428Y-12900714D01*
X15238571Y-12986429D02*
X15267143Y-13000714D01*
X15324286Y-13000714D01*
X15352857Y-12986429D01*
X15367143Y-12957857D01*
X15367143Y-12943571D01*
X15352857Y-12915000D01*
X15324286Y-12900714D01*
X15281428Y-12900714D01*
X15252857Y-12886429D01*
X15238571Y-12857857D01*
X15238571Y-12843571D01*
X15252857Y-12815000D01*
X15281428Y-12800714D01*
X15324286Y-12800714D01*
X15352857Y-12815000D01*
X15467143Y-13115000D02*
X15481428Y-13100714D01*
X15510000Y-13057857D01*
X15524286Y-13029286D01*
X15538571Y-12986429D01*
X15552857Y-12915000D01*
X15552857Y-12857857D01*
X15538571Y-12786429D01*
X15524286Y-12743571D01*
X15510000Y-12715000D01*
X15481428Y-12672143D01*
X15467143Y-12657857D01*
X8695000Y-13261000D02*
G75*
G03*
X8695000Y-13261000I-50000J0D01*
G01*
X9138571Y-13396714D02*
X8967143Y-13396714D01*
X9052857Y-13396714D02*
X9052857Y-13096714D01*
X9024286Y-13139571D01*
X8995714Y-13168143D01*
X8967143Y-13182429D01*
X9267143Y-13368143D02*
X9281428Y-13382429D01*
X9267143Y-13396714D01*
X9252857Y-13382429D01*
X9267143Y-13368143D01*
X9267143Y-13396714D01*
X9467143Y-13096714D02*
X9495714Y-13096714D01*
X9524286Y-13111000D01*
X9538571Y-13125286D01*
X9552857Y-13153857D01*
X9567143Y-13211000D01*
X9567143Y-13282429D01*
X9552857Y-13339571D01*
X9538571Y-13368143D01*
X9524286Y-13382429D01*
X9495714Y-13396714D01*
X9467143Y-13396714D01*
X9438571Y-13382429D01*
X9424286Y-13368143D01*
X9410000Y-13339571D01*
X9395714Y-13282429D01*
X9395714Y-13211000D01*
X9410000Y-13153857D01*
X9424286Y-13125286D01*
X9438571Y-13111000D01*
X9467143Y-13096714D01*
X9752857Y-13096714D02*
X9781428Y-13096714D01*
X9810000Y-13111000D01*
X9824286Y-13125286D01*
X9838571Y-13153857D01*
X9852857Y-13211000D01*
X9852857Y-13282429D01*
X9838571Y-13339571D01*
X9824286Y-13368143D01*
X9810000Y-13382429D01*
X9781428Y-13396714D01*
X9752857Y-13396714D01*
X9724286Y-13382429D01*
X9710000Y-13368143D01*
X9695714Y-13339571D01*
X9681428Y-13282429D01*
X9681428Y-13211000D01*
X9695714Y-13153857D01*
X9710000Y-13125286D01*
X9724286Y-13111000D01*
X9752857Y-13096714D01*
X9981428Y-13396714D02*
X9981428Y-13196714D01*
X9981428Y-13225286D02*
X9995714Y-13211000D01*
X10024286Y-13196714D01*
X10067143Y-13196714D01*
X10095714Y-13211000D01*
X10110000Y-13239571D01*
X10110000Y-13396714D01*
X10110000Y-13239571D02*
X10124286Y-13211000D01*
X10152857Y-13196714D01*
X10195714Y-13196714D01*
X10224286Y-13211000D01*
X10238571Y-13239571D01*
X10238571Y-13396714D01*
X10381428Y-13396714D02*
X10381428Y-13196714D01*
X10381428Y-13225286D02*
X10395714Y-13211000D01*
X10424286Y-13196714D01*
X10467143Y-13196714D01*
X10495714Y-13211000D01*
X10510000Y-13239571D01*
X10510000Y-13396714D01*
X10510000Y-13239571D02*
X10524286Y-13211000D01*
X10552857Y-13196714D01*
X10595714Y-13196714D01*
X10624286Y-13211000D01*
X10638571Y-13239571D01*
X10638571Y-13396714D01*
X11224286Y-13082429D02*
X10967143Y-13468143D01*
X11610000Y-13096714D02*
X11638571Y-13096714D01*
X11667143Y-13111000D01*
X11681428Y-13125286D01*
X11695714Y-13153857D01*
X11710000Y-13211000D01*
X11710000Y-13282429D01*
X11695714Y-13339571D01*
X11681428Y-13368143D01*
X11667143Y-13382429D01*
X11638571Y-13396714D01*
X11610000Y-13396714D01*
X11581428Y-13382429D01*
X11567143Y-13368143D01*
X11552857Y-13339571D01*
X11538571Y-13282429D01*
X11538571Y-13211000D01*
X11552857Y-13153857D01*
X11567143Y-13125286D01*
X11581428Y-13111000D01*
X11610000Y-13096714D01*
X11838571Y-13368143D02*
X11852857Y-13382429D01*
X11838571Y-13396714D01*
X11824286Y-13382429D01*
X11838571Y-13368143D01*
X11838571Y-13396714D01*
X12038571Y-13096714D02*
X12067143Y-13096714D01*
X12095714Y-13111000D01*
X12110000Y-13125286D01*
X12124286Y-13153857D01*
X12138571Y-13211000D01*
X12138571Y-13282429D01*
X12124286Y-13339571D01*
X12110000Y-13368143D01*
X12095714Y-13382429D01*
X12067143Y-13396714D01*
X12038571Y-13396714D01*
X12010000Y-13382429D01*
X11995714Y-13368143D01*
X11981428Y-13339571D01*
X11967143Y-13282429D01*
X11967143Y-13211000D01*
X11981428Y-13153857D01*
X11995714Y-13125286D01*
X12010000Y-13111000D01*
X12038571Y-13096714D01*
X12238571Y-13096714D02*
X12424286Y-13096714D01*
X12324286Y-13211000D01*
X12367143Y-13211000D01*
X12395714Y-13225286D01*
X12410000Y-13239571D01*
X12424286Y-13268143D01*
X12424286Y-13339571D01*
X12410000Y-13368143D01*
X12395714Y-13382429D01*
X12367143Y-13396714D01*
X12281428Y-13396714D01*
X12252857Y-13382429D01*
X12238571Y-13368143D01*
X12567143Y-13396714D02*
X12624286Y-13396714D01*
X12652857Y-13382429D01*
X12667143Y-13368143D01*
X12695714Y-13325286D01*
X12710000Y-13268143D01*
X12710000Y-13153857D01*
X12695714Y-13125286D01*
X12681428Y-13111000D01*
X12652857Y-13096714D01*
X12595714Y-13096714D01*
X12567143Y-13111000D01*
X12552857Y-13125286D01*
X12538571Y-13153857D01*
X12538571Y-13225286D01*
X12552857Y-13253857D01*
X12567143Y-13268143D01*
X12595714Y-13282429D01*
X12652857Y-13282429D01*
X12681428Y-13268143D01*
X12695714Y-13253857D01*
X12710000Y-13225286D01*
X12824286Y-13096714D02*
X12824286Y-13153857D01*
X12938571Y-13096714D02*
X12938571Y-13153857D01*
X13381428Y-13511000D02*
X13367143Y-13496714D01*
X13338571Y-13453857D01*
X13324286Y-13425286D01*
X13310000Y-13382429D01*
X13295714Y-13311000D01*
X13295714Y-13253857D01*
X13310000Y-13182429D01*
X13324286Y-13139571D01*
X13338571Y-13111000D01*
X13367143Y-13068143D01*
X13381428Y-13053857D01*
X13652857Y-13396714D02*
X13481428Y-13396714D01*
X13567143Y-13396714D02*
X13567143Y-13096714D01*
X13538571Y-13139571D01*
X13510000Y-13168143D01*
X13481428Y-13182429D01*
X13910000Y-13096714D02*
X13852857Y-13096714D01*
X13824286Y-13111000D01*
X13810000Y-13125286D01*
X13781428Y-13168143D01*
X13767143Y-13225286D01*
X13767143Y-13339571D01*
X13781428Y-13368143D01*
X13795714Y-13382429D01*
X13824286Y-13396714D01*
X13881428Y-13396714D01*
X13910000Y-13382429D01*
X13924286Y-13368143D01*
X13938571Y-13339571D01*
X13938571Y-13268143D01*
X13924286Y-13239571D01*
X13910000Y-13225286D01*
X13881428Y-13211000D01*
X13824286Y-13211000D01*
X13795714Y-13225286D01*
X13781428Y-13239571D01*
X13767143Y-13268143D01*
X14295714Y-13396714D02*
X14295714Y-13096714D01*
X14424286Y-13396714D02*
X14424286Y-13239571D01*
X14410000Y-13211000D01*
X14381428Y-13196714D01*
X14338571Y-13196714D01*
X14310000Y-13211000D01*
X14295714Y-13225286D01*
X14610000Y-13396714D02*
X14581428Y-13382429D01*
X14567143Y-13368143D01*
X14552857Y-13339571D01*
X14552857Y-13253857D01*
X14567143Y-13225286D01*
X14581428Y-13211000D01*
X14610000Y-13196714D01*
X14652857Y-13196714D01*
X14681428Y-13211000D01*
X14695714Y-13225286D01*
X14710000Y-13253857D01*
X14710000Y-13339571D01*
X14695714Y-13368143D01*
X14681428Y-13382429D01*
X14652857Y-13396714D01*
X14610000Y-13396714D01*
X14881428Y-13396714D02*
X14852857Y-13382429D01*
X14838571Y-13353857D01*
X14838571Y-13096714D01*
X15110000Y-13382429D02*
X15081428Y-13396714D01*
X15024286Y-13396714D01*
X14995714Y-13382429D01*
X14981428Y-13353857D01*
X14981428Y-13239571D01*
X14995714Y-13211000D01*
X15024286Y-13196714D01*
X15081428Y-13196714D01*
X15110000Y-13211000D01*
X15124286Y-13239571D01*
X15124286Y-13268143D01*
X14981428Y-13296714D01*
X15238571Y-13382429D02*
X15267143Y-13396714D01*
X15324286Y-13396714D01*
X15352857Y-13382429D01*
X15367143Y-13353857D01*
X15367143Y-13339571D01*
X15352857Y-13311000D01*
X15324286Y-13296714D01*
X15281428Y-13296714D01*
X15252857Y-13282429D01*
X15238571Y-13253857D01*
X15238571Y-13239571D01*
X15252857Y-13211000D01*
X15281428Y-13196714D01*
X15324286Y-13196714D01*
X15352857Y-13211000D01*
X15467143Y-13511000D02*
X15481428Y-13496714D01*
X15510000Y-13453857D01*
X15524286Y-13425286D01*
X15538571Y-13382429D01*
X15552857Y-13311000D01*
X15552857Y-13253857D01*
X15538571Y-13182429D01*
X15524286Y-13139571D01*
X15510000Y-13111000D01*
X15481428Y-13068143D01*
X15467143Y-13053857D01*
M02*
