G04 #@! TF.GenerationSoftware,KiCad,Pcbnew,(5.1.7)-1*
G04 #@! TF.CreationDate,2021-11-12T18:57:48+01:00*
G04 #@! TF.ProjectId,CO2-Breakout,434f322d-4272-4656-916b-6f75742e6b69,rev?*
G04 #@! TF.SameCoordinates,Original*
G04 #@! TF.FileFunction,Copper,L2,Bot*
G04 #@! TF.FilePolarity,Positive*
%FSLAX46Y46*%
G04 Gerber Fmt 4.6, Leading zero omitted, Abs format (unit mm)*
G04 Created by KiCad (PCBNEW (5.1.7)-1) date 2021-11-12 18:57:48*
%MOMM*%
%LPD*%
G01*
G04 APERTURE LIST*
G04 #@! TA.AperFunction,ComponentPad*
%ADD10O,2.000000X1.600000*%
G04 #@! TD*
G04 #@! TA.AperFunction,ComponentPad*
%ADD11O,3.000000X2.000000*%
G04 #@! TD*
G04 #@! TA.AperFunction,ComponentPad*
%ADD12R,2.000000X2.000000*%
G04 #@! TD*
G04 #@! TA.AperFunction,ViaPad*
%ADD13C,0.800000*%
G04 #@! TD*
G04 #@! TA.AperFunction,Conductor*
%ADD14C,0.250000*%
G04 #@! TD*
G04 #@! TA.AperFunction,Conductor*
%ADD15C,0.254000*%
G04 #@! TD*
G04 #@! TA.AperFunction,Conductor*
%ADD16C,0.100000*%
G04 #@! TD*
G04 APERTURE END LIST*
D10*
G04 #@! TO.P,U2,16*
G04 #@! TO.N,Net-(U2-Pad16)*
X112355001Y-94875000D03*
G04 #@! TO.P,U2,15*
G04 #@! TO.N,Net-(U2-Pad15)*
X112355001Y-97415000D03*
D11*
G04 #@! TO.P,U2,14*
G04 #@! TO.N,/SCL*
X112355001Y-99955000D03*
G04 #@! TO.P,U2,13*
G04 #@! TO.N,/SDA*
X112355001Y-102495000D03*
D10*
G04 #@! TO.P,U2,12*
G04 #@! TO.N,Net-(U2-Pad12)*
X112355001Y-105035000D03*
G04 #@! TO.P,U2,11*
G04 #@! TO.N,Net-(U2-Pad11)*
X112355001Y-107575000D03*
D11*
G04 #@! TO.P,U2,10*
G04 #@! TO.N,GND*
X112355001Y-110115000D03*
D10*
G04 #@! TO.P,U2,9*
G04 #@! TO.N,Net-(U2-Pad9)*
X112355001Y-112655000D03*
D11*
G04 #@! TO.P,U2,8*
G04 #@! TO.N,+3V3*
X89495001Y-112655000D03*
D10*
G04 #@! TO.P,U2,7*
G04 #@! TO.N,Net-(U2-Pad7)*
X89495001Y-110115000D03*
G04 #@! TO.P,U2,6*
G04 #@! TO.N,Net-(U2-Pad6)*
X89495001Y-107575000D03*
G04 #@! TO.P,U2,5*
G04 #@! TO.N,Net-(U2-Pad5)*
X89495001Y-105035000D03*
G04 #@! TO.P,U2,4*
G04 #@! TO.N,Net-(U2-Pad4)*
X89495001Y-102495000D03*
G04 #@! TO.P,U2,3*
G04 #@! TO.N,Net-(U2-Pad3)*
X89495001Y-99955000D03*
D12*
G04 #@! TO.P,U2,1*
G04 #@! TO.N,Net-(U2-Pad1)*
X89495001Y-94875000D03*
D10*
G04 #@! TO.P,U2,2*
G04 #@! TO.N,Net-(U2-Pad2)*
X89495001Y-97415000D03*
G04 #@! TD*
D13*
G04 #@! TO.N,GND*
X93000000Y-89000000D03*
X98000000Y-89000000D03*
X100500000Y-94000000D03*
X105500000Y-94000000D03*
X108000000Y-109000000D03*
X101500000Y-111000000D03*
X95500000Y-110500000D03*
X96000000Y-97000000D03*
X109400000Y-113400000D03*
X102000000Y-113800000D03*
X94800000Y-114000000D03*
G04 #@! TO.N,+3V3*
X92345000Y-112655000D03*
X91599999Y-110599999D03*
G04 #@! TO.N,/SCL*
X110295000Y-99955000D03*
G04 #@! TO.N,/SDA*
X108200000Y-99400000D03*
X112000000Y-92075000D03*
X110300000Y-101100000D03*
G04 #@! TD*
D14*
G04 #@! TO.N,+3V3*
X89544998Y-112655000D02*
X91599999Y-110599999D01*
X92345000Y-112655000D02*
X89544998Y-112655000D01*
G04 #@! TO.N,/SCL*
X110295000Y-99955000D02*
X112355001Y-99955000D01*
G04 #@! TO.N,/SDA*
X108600000Y-99400000D02*
X108200000Y-99400000D01*
X108200000Y-99400000D02*
X108200000Y-99400000D01*
X108200000Y-95750000D02*
X108200000Y-99400000D01*
X111875000Y-92075000D02*
X108200000Y-95750000D01*
X110300000Y-101100000D02*
X108600000Y-99400000D01*
X111695000Y-102495000D02*
X112355001Y-102495000D01*
X110300000Y-101100000D02*
X111695000Y-102495000D01*
G04 #@! TD*
D15*
G04 #@! TO.N,GND*
X113873000Y-94296657D02*
X113753933Y-94073899D01*
X113574609Y-93855392D01*
X113356102Y-93676068D01*
X113106809Y-93542818D01*
X112836310Y-93460764D01*
X112625493Y-93440000D01*
X112084509Y-93440000D01*
X111873692Y-93460764D01*
X111603193Y-93542818D01*
X111353900Y-93676068D01*
X111325090Y-93699712D01*
X111914802Y-93110000D01*
X112101939Y-93110000D01*
X112301898Y-93070226D01*
X112490256Y-92992205D01*
X112659774Y-92878937D01*
X112803937Y-92734774D01*
X112917205Y-92565256D01*
X112995226Y-92376898D01*
X113035000Y-92176939D01*
X113035000Y-91973061D01*
X112995226Y-91773102D01*
X112917205Y-91584744D01*
X112803937Y-91415226D01*
X112659774Y-91271063D01*
X112490256Y-91157795D01*
X112301898Y-91079774D01*
X112101939Y-91040000D01*
X111898061Y-91040000D01*
X111698102Y-91079774D01*
X111509744Y-91157795D01*
X111340226Y-91271063D01*
X111196063Y-91415226D01*
X111082795Y-91584744D01*
X111004774Y-91773102D01*
X110980609Y-91894589D01*
X107689003Y-95186196D01*
X107659999Y-95209999D01*
X107604871Y-95277174D01*
X107565026Y-95325724D01*
X107510995Y-95426808D01*
X107494454Y-95457754D01*
X107450997Y-95601015D01*
X107440000Y-95712668D01*
X107440000Y-95712678D01*
X107436324Y-95750000D01*
X107440000Y-95787323D01*
X107440001Y-98696288D01*
X107396063Y-98740226D01*
X107282795Y-98909744D01*
X107204774Y-99098102D01*
X107165000Y-99298061D01*
X107165000Y-99501939D01*
X107204774Y-99701898D01*
X107282795Y-99890256D01*
X107396063Y-100059774D01*
X107540226Y-100203937D01*
X107709744Y-100317205D01*
X107898102Y-100395226D01*
X108098061Y-100435000D01*
X108301939Y-100435000D01*
X108501898Y-100395226D01*
X108514998Y-100389800D01*
X109265000Y-101139802D01*
X109265000Y-101201939D01*
X109304774Y-101401898D01*
X109382795Y-101590256D01*
X109496063Y-101759774D01*
X109640226Y-101903937D01*
X109809744Y-102017205D01*
X109998102Y-102095226D01*
X110198061Y-102135000D01*
X110255635Y-102135000D01*
X110243658Y-102174484D01*
X110212090Y-102495000D01*
X110243658Y-102815516D01*
X110337149Y-103123715D01*
X110488970Y-103407752D01*
X110693287Y-103656714D01*
X110942249Y-103861031D01*
X111173117Y-103984433D01*
X111135393Y-104015392D01*
X110956069Y-104233899D01*
X110822819Y-104483192D01*
X110740765Y-104753691D01*
X110713058Y-105035000D01*
X110740765Y-105316309D01*
X110822819Y-105586808D01*
X110956069Y-105836101D01*
X111135393Y-106054608D01*
X111353900Y-106233932D01*
X111486859Y-106305000D01*
X111353900Y-106376068D01*
X111135393Y-106555392D01*
X110956069Y-106773899D01*
X110822819Y-107023192D01*
X110740765Y-107293691D01*
X110713058Y-107575000D01*
X110740765Y-107856309D01*
X110822819Y-108126808D01*
X110956069Y-108376101D01*
X111135393Y-108594608D01*
X111176118Y-108628031D01*
X111111981Y-108653058D01*
X110841047Y-108826105D01*
X110609079Y-109048683D01*
X110424991Y-109312239D01*
X110295857Y-109606645D01*
X110264877Y-109734566D01*
X110384224Y-109988000D01*
X112023879Y-109988000D01*
X112017875Y-110053974D01*
X112018309Y-110116058D01*
X112017875Y-110178141D01*
X112018809Y-110187659D01*
X112024520Y-110242000D01*
X110384224Y-110242000D01*
X110264877Y-110495434D01*
X110295857Y-110623355D01*
X110424991Y-110917761D01*
X110609079Y-111181317D01*
X110841047Y-111403895D01*
X111111981Y-111576942D01*
X111176118Y-111601969D01*
X111135393Y-111635392D01*
X110956069Y-111853899D01*
X110822819Y-112103192D01*
X110740765Y-112373691D01*
X110713058Y-112655000D01*
X110740765Y-112936309D01*
X110822819Y-113206808D01*
X110956069Y-113456101D01*
X111135393Y-113674608D01*
X111353900Y-113853932D01*
X111603193Y-113987182D01*
X111873692Y-114069236D01*
X112084509Y-114090000D01*
X112625493Y-114090000D01*
X112836310Y-114069236D01*
X113106809Y-113987182D01*
X113356102Y-113853932D01*
X113574609Y-113674608D01*
X113753933Y-113456101D01*
X113873000Y-113233343D01*
X113873000Y-117373000D01*
X88127000Y-117373000D01*
X88127000Y-115321180D01*
X88156826Y-115308887D01*
X88164932Y-115304503D01*
X88532637Y-115102356D01*
X88582000Y-115068557D01*
X88631819Y-115035457D01*
X88638919Y-115029583D01*
X88960356Y-114759865D01*
X89002200Y-114717135D01*
X89044655Y-114674976D01*
X89050479Y-114667835D01*
X89313406Y-114340820D01*
X89346166Y-114290757D01*
X89346677Y-114290000D01*
X90075323Y-114290000D01*
X90315517Y-114266343D01*
X90623716Y-114172852D01*
X90907753Y-114021031D01*
X91156715Y-113816714D01*
X91361032Y-113567752D01*
X91442680Y-113415000D01*
X91641289Y-113415000D01*
X91685226Y-113458937D01*
X91854744Y-113572205D01*
X92043102Y-113650226D01*
X92243061Y-113690000D01*
X92446939Y-113690000D01*
X92646898Y-113650226D01*
X92835256Y-113572205D01*
X93004774Y-113458937D01*
X93148937Y-113314774D01*
X93262205Y-113145256D01*
X93340226Y-112956898D01*
X93380000Y-112756939D01*
X93380000Y-112553061D01*
X93340226Y-112353102D01*
X93262205Y-112164744D01*
X93148937Y-111995226D01*
X93004774Y-111851063D01*
X92835256Y-111737795D01*
X92646898Y-111659774D01*
X92446939Y-111620000D01*
X92243061Y-111620000D01*
X92043102Y-111659774D01*
X91854744Y-111737795D01*
X91685226Y-111851063D01*
X91641289Y-111895000D01*
X91442680Y-111895000D01*
X91420777Y-111854023D01*
X91639801Y-111634999D01*
X91701938Y-111634999D01*
X91901897Y-111595225D01*
X92090255Y-111517204D01*
X92259773Y-111403936D01*
X92403936Y-111259773D01*
X92517204Y-111090255D01*
X92595225Y-110901897D01*
X92634999Y-110701938D01*
X92634999Y-110498060D01*
X92595225Y-110298101D01*
X92517204Y-110109743D01*
X92403936Y-109940225D01*
X92259773Y-109796062D01*
X92090255Y-109682794D01*
X91901897Y-109604773D01*
X91701938Y-109564999D01*
X91498060Y-109564999D01*
X91298101Y-109604773D01*
X91109743Y-109682794D01*
X91071263Y-109708506D01*
X91027183Y-109563192D01*
X90893933Y-109313899D01*
X90714609Y-109095392D01*
X90496102Y-108916068D01*
X90363143Y-108845000D01*
X90496102Y-108773932D01*
X90714609Y-108594608D01*
X90893933Y-108376101D01*
X91027183Y-108126808D01*
X91109237Y-107856309D01*
X91136944Y-107575000D01*
X91109237Y-107293691D01*
X91027183Y-107023192D01*
X90893933Y-106773899D01*
X90714609Y-106555392D01*
X90496102Y-106376068D01*
X90363143Y-106305000D01*
X90496102Y-106233932D01*
X90714609Y-106054608D01*
X90893933Y-105836101D01*
X91027183Y-105586808D01*
X91109237Y-105316309D01*
X91136944Y-105035000D01*
X91109237Y-104753691D01*
X91027183Y-104483192D01*
X90893933Y-104233899D01*
X90714609Y-104015392D01*
X90496102Y-103836068D01*
X90363143Y-103765000D01*
X90496102Y-103693932D01*
X90714609Y-103514608D01*
X90893933Y-103296101D01*
X91027183Y-103046808D01*
X91109237Y-102776309D01*
X91136944Y-102495000D01*
X91109237Y-102213691D01*
X91027183Y-101943192D01*
X90893933Y-101693899D01*
X90714609Y-101475392D01*
X90496102Y-101296068D01*
X90363143Y-101225000D01*
X90496102Y-101153932D01*
X90714609Y-100974608D01*
X90893933Y-100756101D01*
X91027183Y-100506808D01*
X91109237Y-100236309D01*
X91136944Y-99955000D01*
X91109237Y-99673691D01*
X91027183Y-99403192D01*
X90893933Y-99153899D01*
X90714609Y-98935392D01*
X90496102Y-98756068D01*
X90363143Y-98685000D01*
X90496102Y-98613932D01*
X90714609Y-98434608D01*
X90893933Y-98216101D01*
X91027183Y-97966808D01*
X91109237Y-97696309D01*
X91136944Y-97415000D01*
X91109237Y-97133691D01*
X91027183Y-96863192D01*
X90893933Y-96613899D01*
X90761525Y-96452559D01*
X90849495Y-96405537D01*
X90946186Y-96326185D01*
X91025538Y-96229494D01*
X91084503Y-96119180D01*
X91120813Y-95999482D01*
X91133073Y-95875000D01*
X91133073Y-93875000D01*
X91120813Y-93750518D01*
X91084503Y-93630820D01*
X91025538Y-93520506D01*
X90946186Y-93423815D01*
X90849495Y-93344463D01*
X90739181Y-93285498D01*
X90619483Y-93249188D01*
X90495001Y-93236928D01*
X88495001Y-93236928D01*
X88370519Y-93249188D01*
X88250821Y-93285498D01*
X88140507Y-93344463D01*
X88127000Y-93355548D01*
X88127000Y-87127000D01*
X113873000Y-87127000D01*
X113873000Y-94296657D01*
G04 #@! TA.AperFunction,Conductor*
D16*
G36*
X113873000Y-94296657D02*
G01*
X113753933Y-94073899D01*
X113574609Y-93855392D01*
X113356102Y-93676068D01*
X113106809Y-93542818D01*
X112836310Y-93460764D01*
X112625493Y-93440000D01*
X112084509Y-93440000D01*
X111873692Y-93460764D01*
X111603193Y-93542818D01*
X111353900Y-93676068D01*
X111325090Y-93699712D01*
X111914802Y-93110000D01*
X112101939Y-93110000D01*
X112301898Y-93070226D01*
X112490256Y-92992205D01*
X112659774Y-92878937D01*
X112803937Y-92734774D01*
X112917205Y-92565256D01*
X112995226Y-92376898D01*
X113035000Y-92176939D01*
X113035000Y-91973061D01*
X112995226Y-91773102D01*
X112917205Y-91584744D01*
X112803937Y-91415226D01*
X112659774Y-91271063D01*
X112490256Y-91157795D01*
X112301898Y-91079774D01*
X112101939Y-91040000D01*
X111898061Y-91040000D01*
X111698102Y-91079774D01*
X111509744Y-91157795D01*
X111340226Y-91271063D01*
X111196063Y-91415226D01*
X111082795Y-91584744D01*
X111004774Y-91773102D01*
X110980609Y-91894589D01*
X107689003Y-95186196D01*
X107659999Y-95209999D01*
X107604871Y-95277174D01*
X107565026Y-95325724D01*
X107510995Y-95426808D01*
X107494454Y-95457754D01*
X107450997Y-95601015D01*
X107440000Y-95712668D01*
X107440000Y-95712678D01*
X107436324Y-95750000D01*
X107440000Y-95787323D01*
X107440001Y-98696288D01*
X107396063Y-98740226D01*
X107282795Y-98909744D01*
X107204774Y-99098102D01*
X107165000Y-99298061D01*
X107165000Y-99501939D01*
X107204774Y-99701898D01*
X107282795Y-99890256D01*
X107396063Y-100059774D01*
X107540226Y-100203937D01*
X107709744Y-100317205D01*
X107898102Y-100395226D01*
X108098061Y-100435000D01*
X108301939Y-100435000D01*
X108501898Y-100395226D01*
X108514998Y-100389800D01*
X109265000Y-101139802D01*
X109265000Y-101201939D01*
X109304774Y-101401898D01*
X109382795Y-101590256D01*
X109496063Y-101759774D01*
X109640226Y-101903937D01*
X109809744Y-102017205D01*
X109998102Y-102095226D01*
X110198061Y-102135000D01*
X110255635Y-102135000D01*
X110243658Y-102174484D01*
X110212090Y-102495000D01*
X110243658Y-102815516D01*
X110337149Y-103123715D01*
X110488970Y-103407752D01*
X110693287Y-103656714D01*
X110942249Y-103861031D01*
X111173117Y-103984433D01*
X111135393Y-104015392D01*
X110956069Y-104233899D01*
X110822819Y-104483192D01*
X110740765Y-104753691D01*
X110713058Y-105035000D01*
X110740765Y-105316309D01*
X110822819Y-105586808D01*
X110956069Y-105836101D01*
X111135393Y-106054608D01*
X111353900Y-106233932D01*
X111486859Y-106305000D01*
X111353900Y-106376068D01*
X111135393Y-106555392D01*
X110956069Y-106773899D01*
X110822819Y-107023192D01*
X110740765Y-107293691D01*
X110713058Y-107575000D01*
X110740765Y-107856309D01*
X110822819Y-108126808D01*
X110956069Y-108376101D01*
X111135393Y-108594608D01*
X111176118Y-108628031D01*
X111111981Y-108653058D01*
X110841047Y-108826105D01*
X110609079Y-109048683D01*
X110424991Y-109312239D01*
X110295857Y-109606645D01*
X110264877Y-109734566D01*
X110384224Y-109988000D01*
X112023879Y-109988000D01*
X112017875Y-110053974D01*
X112018309Y-110116058D01*
X112017875Y-110178141D01*
X112018809Y-110187659D01*
X112024520Y-110242000D01*
X110384224Y-110242000D01*
X110264877Y-110495434D01*
X110295857Y-110623355D01*
X110424991Y-110917761D01*
X110609079Y-111181317D01*
X110841047Y-111403895D01*
X111111981Y-111576942D01*
X111176118Y-111601969D01*
X111135393Y-111635392D01*
X110956069Y-111853899D01*
X110822819Y-112103192D01*
X110740765Y-112373691D01*
X110713058Y-112655000D01*
X110740765Y-112936309D01*
X110822819Y-113206808D01*
X110956069Y-113456101D01*
X111135393Y-113674608D01*
X111353900Y-113853932D01*
X111603193Y-113987182D01*
X111873692Y-114069236D01*
X112084509Y-114090000D01*
X112625493Y-114090000D01*
X112836310Y-114069236D01*
X113106809Y-113987182D01*
X113356102Y-113853932D01*
X113574609Y-113674608D01*
X113753933Y-113456101D01*
X113873000Y-113233343D01*
X113873000Y-117373000D01*
X88127000Y-117373000D01*
X88127000Y-115321180D01*
X88156826Y-115308887D01*
X88164932Y-115304503D01*
X88532637Y-115102356D01*
X88582000Y-115068557D01*
X88631819Y-115035457D01*
X88638919Y-115029583D01*
X88960356Y-114759865D01*
X89002200Y-114717135D01*
X89044655Y-114674976D01*
X89050479Y-114667835D01*
X89313406Y-114340820D01*
X89346166Y-114290757D01*
X89346677Y-114290000D01*
X90075323Y-114290000D01*
X90315517Y-114266343D01*
X90623716Y-114172852D01*
X90907753Y-114021031D01*
X91156715Y-113816714D01*
X91361032Y-113567752D01*
X91442680Y-113415000D01*
X91641289Y-113415000D01*
X91685226Y-113458937D01*
X91854744Y-113572205D01*
X92043102Y-113650226D01*
X92243061Y-113690000D01*
X92446939Y-113690000D01*
X92646898Y-113650226D01*
X92835256Y-113572205D01*
X93004774Y-113458937D01*
X93148937Y-113314774D01*
X93262205Y-113145256D01*
X93340226Y-112956898D01*
X93380000Y-112756939D01*
X93380000Y-112553061D01*
X93340226Y-112353102D01*
X93262205Y-112164744D01*
X93148937Y-111995226D01*
X93004774Y-111851063D01*
X92835256Y-111737795D01*
X92646898Y-111659774D01*
X92446939Y-111620000D01*
X92243061Y-111620000D01*
X92043102Y-111659774D01*
X91854744Y-111737795D01*
X91685226Y-111851063D01*
X91641289Y-111895000D01*
X91442680Y-111895000D01*
X91420777Y-111854023D01*
X91639801Y-111634999D01*
X91701938Y-111634999D01*
X91901897Y-111595225D01*
X92090255Y-111517204D01*
X92259773Y-111403936D01*
X92403936Y-111259773D01*
X92517204Y-111090255D01*
X92595225Y-110901897D01*
X92634999Y-110701938D01*
X92634999Y-110498060D01*
X92595225Y-110298101D01*
X92517204Y-110109743D01*
X92403936Y-109940225D01*
X92259773Y-109796062D01*
X92090255Y-109682794D01*
X91901897Y-109604773D01*
X91701938Y-109564999D01*
X91498060Y-109564999D01*
X91298101Y-109604773D01*
X91109743Y-109682794D01*
X91071263Y-109708506D01*
X91027183Y-109563192D01*
X90893933Y-109313899D01*
X90714609Y-109095392D01*
X90496102Y-108916068D01*
X90363143Y-108845000D01*
X90496102Y-108773932D01*
X90714609Y-108594608D01*
X90893933Y-108376101D01*
X91027183Y-108126808D01*
X91109237Y-107856309D01*
X91136944Y-107575000D01*
X91109237Y-107293691D01*
X91027183Y-107023192D01*
X90893933Y-106773899D01*
X90714609Y-106555392D01*
X90496102Y-106376068D01*
X90363143Y-106305000D01*
X90496102Y-106233932D01*
X90714609Y-106054608D01*
X90893933Y-105836101D01*
X91027183Y-105586808D01*
X91109237Y-105316309D01*
X91136944Y-105035000D01*
X91109237Y-104753691D01*
X91027183Y-104483192D01*
X90893933Y-104233899D01*
X90714609Y-104015392D01*
X90496102Y-103836068D01*
X90363143Y-103765000D01*
X90496102Y-103693932D01*
X90714609Y-103514608D01*
X90893933Y-103296101D01*
X91027183Y-103046808D01*
X91109237Y-102776309D01*
X91136944Y-102495000D01*
X91109237Y-102213691D01*
X91027183Y-101943192D01*
X90893933Y-101693899D01*
X90714609Y-101475392D01*
X90496102Y-101296068D01*
X90363143Y-101225000D01*
X90496102Y-101153932D01*
X90714609Y-100974608D01*
X90893933Y-100756101D01*
X91027183Y-100506808D01*
X91109237Y-100236309D01*
X91136944Y-99955000D01*
X91109237Y-99673691D01*
X91027183Y-99403192D01*
X90893933Y-99153899D01*
X90714609Y-98935392D01*
X90496102Y-98756068D01*
X90363143Y-98685000D01*
X90496102Y-98613932D01*
X90714609Y-98434608D01*
X90893933Y-98216101D01*
X91027183Y-97966808D01*
X91109237Y-97696309D01*
X91136944Y-97415000D01*
X91109237Y-97133691D01*
X91027183Y-96863192D01*
X90893933Y-96613899D01*
X90761525Y-96452559D01*
X90849495Y-96405537D01*
X90946186Y-96326185D01*
X91025538Y-96229494D01*
X91084503Y-96119180D01*
X91120813Y-95999482D01*
X91133073Y-95875000D01*
X91133073Y-93875000D01*
X91120813Y-93750518D01*
X91084503Y-93630820D01*
X91025538Y-93520506D01*
X90946186Y-93423815D01*
X90849495Y-93344463D01*
X90739181Y-93285498D01*
X90619483Y-93249188D01*
X90495001Y-93236928D01*
X88495001Y-93236928D01*
X88370519Y-93249188D01*
X88250821Y-93285498D01*
X88140507Y-93344463D01*
X88127000Y-93355548D01*
X88127000Y-87127000D01*
X113873000Y-87127000D01*
X113873000Y-94296657D01*
G37*
G04 #@! TD.AperFunction*
G04 #@! TD*
M02*
