G04 #@! TF.GenerationSoftware,KiCad,Pcbnew,(5.1.7)-1*
G04 #@! TF.CreationDate,2021-11-12T18:57:48+01:00*
G04 #@! TF.ProjectId,CO2-Breakout,434f322d-4272-4656-916b-6f75742e6b69,rev?*
G04 #@! TF.SameCoordinates,Original*
G04 #@! TF.FileFunction,Legend,Bot*
G04 #@! TF.FilePolarity,Positive*
%FSLAX46Y46*%
G04 Gerber Fmt 4.6, Leading zero omitted, Abs format (unit mm)*
G04 Created by KiCad (PCBNEW (5.1.7)-1) date 2021-11-12 18:57:48*
%MOMM*%
%LPD*%
G01*
G04 APERTURE LIST*
%ADD10C,0.150000*%
%ADD11O,2.000000X1.600000*%
%ADD12O,3.000000X2.000000*%
%ADD13R,2.000000X2.000000*%
G04 APERTURE END LIST*
D10*
X113185714Y-117252380D02*
X113661904Y-117252380D01*
X113661904Y-116252380D01*
X112852380Y-117252380D02*
X112852380Y-116585714D01*
X112852380Y-116252380D02*
X112900000Y-116300000D01*
X112852380Y-116347619D01*
X112804761Y-116300000D01*
X112852380Y-116252380D01*
X112852380Y-116347619D01*
X111947619Y-117204761D02*
X112042857Y-117252380D01*
X112233333Y-117252380D01*
X112328571Y-117204761D01*
X112376190Y-117157142D01*
X112423809Y-117061904D01*
X112423809Y-116776190D01*
X112376190Y-116680952D01*
X112328571Y-116633333D01*
X112233333Y-116585714D01*
X112042857Y-116585714D01*
X111947619Y-116633333D01*
X111138095Y-117204761D02*
X111233333Y-117252380D01*
X111423809Y-117252380D01*
X111519047Y-117204761D01*
X111566666Y-117109523D01*
X111566666Y-116728571D01*
X111519047Y-116633333D01*
X111423809Y-116585714D01*
X111233333Y-116585714D01*
X111138095Y-116633333D01*
X111090476Y-116728571D01*
X111090476Y-116823809D01*
X111566666Y-116919047D01*
X110661904Y-116585714D02*
X110661904Y-117252380D01*
X110661904Y-116680952D02*
X110614285Y-116633333D01*
X110519047Y-116585714D01*
X110376190Y-116585714D01*
X110280952Y-116633333D01*
X110233333Y-116728571D01*
X110233333Y-117252380D01*
X109804761Y-117204761D02*
X109709523Y-117252380D01*
X109519047Y-117252380D01*
X109423809Y-117204761D01*
X109376190Y-117109523D01*
X109376190Y-117061904D01*
X109423809Y-116966666D01*
X109519047Y-116919047D01*
X109661904Y-116919047D01*
X109757142Y-116871428D01*
X109804761Y-116776190D01*
X109804761Y-116728571D01*
X109757142Y-116633333D01*
X109661904Y-116585714D01*
X109519047Y-116585714D01*
X109423809Y-116633333D01*
X108566666Y-117204761D02*
X108661904Y-117252380D01*
X108852380Y-117252380D01*
X108947619Y-117204761D01*
X108995238Y-117109523D01*
X108995238Y-116728571D01*
X108947619Y-116633333D01*
X108852380Y-116585714D01*
X108661904Y-116585714D01*
X108566666Y-116633333D01*
X108519047Y-116728571D01*
X108519047Y-116823809D01*
X108995238Y-116919047D01*
X107661904Y-117252380D02*
X107661904Y-116252380D01*
X107661904Y-117204761D02*
X107757142Y-117252380D01*
X107947619Y-117252380D01*
X108042857Y-117204761D01*
X108090476Y-117157142D01*
X108138095Y-117061904D01*
X108138095Y-116776190D01*
X108090476Y-116680952D01*
X108042857Y-116633333D01*
X107947619Y-116585714D01*
X107757142Y-116585714D01*
X107661904Y-116633333D01*
X105995238Y-116585714D02*
X105995238Y-117252380D01*
X106423809Y-116585714D02*
X106423809Y-117109523D01*
X106376190Y-117204761D01*
X106280952Y-117252380D01*
X106138095Y-117252380D01*
X106042857Y-117204761D01*
X105995238Y-117157142D01*
X105519047Y-116585714D02*
X105519047Y-117252380D01*
X105519047Y-116680952D02*
X105471428Y-116633333D01*
X105376190Y-116585714D01*
X105233333Y-116585714D01*
X105138095Y-116633333D01*
X105090476Y-116728571D01*
X105090476Y-117252380D01*
X104185714Y-117252380D02*
X104185714Y-116252380D01*
X104185714Y-117204761D02*
X104280952Y-117252380D01*
X104471428Y-117252380D01*
X104566666Y-117204761D01*
X104614285Y-117157142D01*
X104661904Y-117061904D01*
X104661904Y-116776190D01*
X104614285Y-116680952D01*
X104566666Y-116633333D01*
X104471428Y-116585714D01*
X104280952Y-116585714D01*
X104185714Y-116633333D01*
X103328571Y-117204761D02*
X103423809Y-117252380D01*
X103614285Y-117252380D01*
X103709523Y-117204761D01*
X103757142Y-117109523D01*
X103757142Y-116728571D01*
X103709523Y-116633333D01*
X103614285Y-116585714D01*
X103423809Y-116585714D01*
X103328571Y-116633333D01*
X103280952Y-116728571D01*
X103280952Y-116823809D01*
X103757142Y-116919047D01*
X102852380Y-117252380D02*
X102852380Y-116585714D01*
X102852380Y-116776190D02*
X102804761Y-116680952D01*
X102757142Y-116633333D01*
X102661904Y-116585714D01*
X102566666Y-116585714D01*
X100900000Y-117157142D02*
X100947619Y-117204761D01*
X101090476Y-117252380D01*
X101185714Y-117252380D01*
X101328571Y-117204761D01*
X101423809Y-117109523D01*
X101471428Y-117014285D01*
X101519047Y-116823809D01*
X101519047Y-116680952D01*
X101471428Y-116490476D01*
X101423809Y-116395238D01*
X101328571Y-116300000D01*
X101185714Y-116252380D01*
X101090476Y-116252380D01*
X100947619Y-116300000D01*
X100900000Y-116347619D01*
X100471428Y-116728571D02*
X100138095Y-116728571D01*
X99995238Y-117252380D02*
X100471428Y-117252380D01*
X100471428Y-116252380D01*
X99995238Y-116252380D01*
X98995238Y-117252380D02*
X99328571Y-116776190D01*
X99566666Y-117252380D02*
X99566666Y-116252380D01*
X99185714Y-116252380D01*
X99090476Y-116300000D01*
X99042857Y-116347619D01*
X98995238Y-116442857D01*
X98995238Y-116585714D01*
X99042857Y-116680952D01*
X99090476Y-116728571D01*
X99185714Y-116776190D01*
X99566666Y-116776190D01*
X98566666Y-117252380D02*
X98566666Y-116252380D01*
X97995238Y-117252380D01*
X97995238Y-116252380D01*
X97519047Y-116871428D02*
X96757142Y-116871428D01*
X96090476Y-116252380D02*
X95900000Y-116252380D01*
X95804761Y-116300000D01*
X95709523Y-116395238D01*
X95661904Y-116585714D01*
X95661904Y-116919047D01*
X95709523Y-117109523D01*
X95804761Y-117204761D01*
X95900000Y-117252380D01*
X96090476Y-117252380D01*
X96185714Y-117204761D01*
X96280952Y-117109523D01*
X96328571Y-116919047D01*
X96328571Y-116585714D01*
X96280952Y-116395238D01*
X96185714Y-116300000D01*
X96090476Y-116252380D01*
X95233333Y-117252380D02*
X95233333Y-116252380D01*
X95233333Y-116728571D02*
X94661904Y-116728571D01*
X94661904Y-117252380D02*
X94661904Y-116252380D01*
X93709523Y-117252380D02*
X94185714Y-117252380D01*
X94185714Y-116252380D01*
X93376190Y-116871428D02*
X92614285Y-116871428D01*
X92138095Y-117252380D02*
X92138095Y-116252380D01*
X91757142Y-116252380D01*
X91661904Y-116300000D01*
X91614285Y-116347619D01*
X91566666Y-116442857D01*
X91566666Y-116585714D01*
X91614285Y-116680952D01*
X91661904Y-116728571D01*
X91757142Y-116776190D01*
X92138095Y-116776190D01*
X90471428Y-116585714D02*
X90233333Y-117252380D01*
X89995238Y-116585714D01*
X89661904Y-116347619D02*
X89614285Y-116300000D01*
X89519047Y-116252380D01*
X89280952Y-116252380D01*
X89185714Y-116300000D01*
X89138095Y-116347619D01*
X89090476Y-116442857D01*
X89090476Y-116538095D01*
X89138095Y-116680952D01*
X89709523Y-117252380D01*
X89090476Y-117252380D01*
X113642857Y-88252380D02*
X113642857Y-87252380D01*
X113404761Y-87252380D01*
X113261904Y-87300000D01*
X113166666Y-87395238D01*
X113119047Y-87490476D01*
X113071428Y-87680952D01*
X113071428Y-87823809D01*
X113119047Y-88014285D01*
X113166666Y-88109523D01*
X113261904Y-88204761D01*
X113404761Y-88252380D01*
X113642857Y-88252380D01*
X112261904Y-88204761D02*
X112357142Y-88252380D01*
X112547619Y-88252380D01*
X112642857Y-88204761D01*
X112690476Y-88109523D01*
X112690476Y-87728571D01*
X112642857Y-87633333D01*
X112547619Y-87585714D01*
X112357142Y-87585714D01*
X112261904Y-87633333D01*
X112214285Y-87728571D01*
X112214285Y-87823809D01*
X112690476Y-87919047D01*
X111833333Y-88204761D02*
X111738095Y-88252380D01*
X111547619Y-88252380D01*
X111452380Y-88204761D01*
X111404761Y-88109523D01*
X111404761Y-88061904D01*
X111452380Y-87966666D01*
X111547619Y-87919047D01*
X111690476Y-87919047D01*
X111785714Y-87871428D01*
X111833333Y-87776190D01*
X111833333Y-87728571D01*
X111785714Y-87633333D01*
X111690476Y-87585714D01*
X111547619Y-87585714D01*
X111452380Y-87633333D01*
X110976190Y-88252380D02*
X110976190Y-87585714D01*
X110976190Y-87252380D02*
X111023809Y-87300000D01*
X110976190Y-87347619D01*
X110928571Y-87300000D01*
X110976190Y-87252380D01*
X110976190Y-87347619D01*
X110071428Y-87585714D02*
X110071428Y-88395238D01*
X110119047Y-88490476D01*
X110166666Y-88538095D01*
X110261904Y-88585714D01*
X110404761Y-88585714D01*
X110500000Y-88538095D01*
X110071428Y-88204761D02*
X110166666Y-88252380D01*
X110357142Y-88252380D01*
X110452380Y-88204761D01*
X110500000Y-88157142D01*
X110547619Y-88061904D01*
X110547619Y-87776190D01*
X110500000Y-87680952D01*
X110452380Y-87633333D01*
X110357142Y-87585714D01*
X110166666Y-87585714D01*
X110071428Y-87633333D01*
X109595238Y-87585714D02*
X109595238Y-88252380D01*
X109595238Y-87680952D02*
X109547619Y-87633333D01*
X109452380Y-87585714D01*
X109309523Y-87585714D01*
X109214285Y-87633333D01*
X109166666Y-87728571D01*
X109166666Y-88252380D01*
X108309523Y-88204761D02*
X108404761Y-88252380D01*
X108595238Y-88252380D01*
X108690476Y-88204761D01*
X108738095Y-88109523D01*
X108738095Y-87728571D01*
X108690476Y-87633333D01*
X108595238Y-87585714D01*
X108404761Y-87585714D01*
X108309523Y-87633333D01*
X108261904Y-87728571D01*
X108261904Y-87823809D01*
X108738095Y-87919047D01*
X107404761Y-88252380D02*
X107404761Y-87252380D01*
X107404761Y-88204761D02*
X107500000Y-88252380D01*
X107690476Y-88252380D01*
X107785714Y-88204761D01*
X107833333Y-88157142D01*
X107880952Y-88061904D01*
X107880952Y-87776190D01*
X107833333Y-87680952D01*
X107785714Y-87633333D01*
X107690476Y-87585714D01*
X107500000Y-87585714D01*
X107404761Y-87633333D01*
X106166666Y-88252380D02*
X106166666Y-87252380D01*
X106166666Y-87633333D02*
X106071428Y-87585714D01*
X105880952Y-87585714D01*
X105785714Y-87633333D01*
X105738095Y-87680952D01*
X105690476Y-87776190D01*
X105690476Y-88061904D01*
X105738095Y-88157142D01*
X105785714Y-88204761D01*
X105880952Y-88252380D01*
X106071428Y-88252380D01*
X106166666Y-88204761D01*
X105357142Y-87585714D02*
X105119047Y-88252380D01*
X104880952Y-87585714D02*
X105119047Y-88252380D01*
X105214285Y-88490476D01*
X105261904Y-88538095D01*
X105357142Y-88585714D01*
X103785714Y-88204761D02*
X103642857Y-88252380D01*
X103404761Y-88252380D01*
X103309523Y-88204761D01*
X103261904Y-88157142D01*
X103214285Y-88061904D01*
X103214285Y-87966666D01*
X103261904Y-87871428D01*
X103309523Y-87823809D01*
X103404761Y-87776190D01*
X103595238Y-87728571D01*
X103690476Y-87680952D01*
X103738095Y-87633333D01*
X103785714Y-87538095D01*
X103785714Y-87442857D01*
X103738095Y-87347619D01*
X103690476Y-87300000D01*
X103595238Y-87252380D01*
X103357142Y-87252380D01*
X103214285Y-87300000D01*
X102785714Y-87585714D02*
X102785714Y-88442857D01*
X102833333Y-88538095D01*
X102928571Y-88585714D01*
X102976190Y-88585714D01*
X102785714Y-87252380D02*
X102833333Y-87300000D01*
X102785714Y-87347619D01*
X102738095Y-87300000D01*
X102785714Y-87252380D01*
X102785714Y-87347619D01*
X102166666Y-88252380D02*
X102261904Y-88204761D01*
X102309523Y-88157142D01*
X102357142Y-88061904D01*
X102357142Y-87776190D01*
X102309523Y-87680952D01*
X102261904Y-87633333D01*
X102166666Y-87585714D01*
X102023809Y-87585714D01*
X101928571Y-87633333D01*
X101880952Y-87680952D01*
X101833333Y-87776190D01*
X101833333Y-88061904D01*
X101880952Y-88157142D01*
X101928571Y-88204761D01*
X102023809Y-88252380D01*
X102166666Y-88252380D01*
X101404761Y-88252380D02*
X101404761Y-87585714D01*
X101404761Y-87776190D02*
X101357142Y-87680952D01*
X101309523Y-87633333D01*
X101214285Y-87585714D01*
X101119047Y-87585714D01*
X100833333Y-88204761D02*
X100738095Y-88252380D01*
X100547619Y-88252380D01*
X100452380Y-88204761D01*
X100404761Y-88109523D01*
X100404761Y-88061904D01*
X100452380Y-87966666D01*
X100547619Y-87919047D01*
X100690476Y-87919047D01*
X100785714Y-87871428D01*
X100833333Y-87776190D01*
X100833333Y-87728571D01*
X100785714Y-87633333D01*
X100690476Y-87585714D01*
X100547619Y-87585714D01*
X100452380Y-87633333D01*
X99261904Y-88204761D02*
X99119047Y-88252380D01*
X98880952Y-88252380D01*
X98785714Y-88204761D01*
X98738095Y-88157142D01*
X98690476Y-88061904D01*
X98690476Y-87966666D01*
X98738095Y-87871428D01*
X98785714Y-87823809D01*
X98880952Y-87776190D01*
X99071428Y-87728571D01*
X99166666Y-87680952D01*
X99214285Y-87633333D01*
X99261904Y-87538095D01*
X99261904Y-87442857D01*
X99214285Y-87347619D01*
X99166666Y-87300000D01*
X99071428Y-87252380D01*
X98833333Y-87252380D01*
X98690476Y-87300000D01*
X98261904Y-88252380D02*
X98261904Y-87585714D01*
X98261904Y-87680952D02*
X98214285Y-87633333D01*
X98119047Y-87585714D01*
X97976190Y-87585714D01*
X97880952Y-87633333D01*
X97833333Y-87728571D01*
X97833333Y-88252380D01*
X97833333Y-87728571D02*
X97785714Y-87633333D01*
X97690476Y-87585714D01*
X97547619Y-87585714D01*
X97452380Y-87633333D01*
X97404761Y-87728571D01*
X97404761Y-88252380D01*
X96928571Y-88252380D02*
X96928571Y-87585714D01*
X96928571Y-87252380D02*
X96976190Y-87300000D01*
X96928571Y-87347619D01*
X96880952Y-87300000D01*
X96928571Y-87252380D01*
X96928571Y-87347619D01*
X96595238Y-87585714D02*
X96214285Y-87585714D01*
X96452380Y-87252380D02*
X96452380Y-88109523D01*
X96404761Y-88204761D01*
X96309523Y-88252380D01*
X96214285Y-88252380D01*
%LPC*%
D11*
G04 #@! TO.C,U2*
X112355001Y-94875000D03*
X112355001Y-97415000D03*
D12*
X112355001Y-99955000D03*
X112355001Y-102495000D03*
D11*
X112355001Y-105035000D03*
X112355001Y-107575000D03*
D12*
X112355001Y-110115000D03*
D11*
X112355001Y-112655000D03*
D12*
X89495001Y-112655000D03*
D11*
X89495001Y-110115000D03*
X89495001Y-107575000D03*
X89495001Y-105035000D03*
X89495001Y-102495000D03*
X89495001Y-99955000D03*
D13*
X89495001Y-94875000D03*
D11*
X89495001Y-97415000D03*
G04 #@! TD*
M02*
